<svg xmlns="http://www.w3.org/2000/svg" version="1.1" xmlns:xlink="http://www.w3.org/1999/xlink" xmlns:svgjs="http://svgjs.com/svgjs" width="1440" height="700" preserveAspectRatio="none" viewBox="0 0 1440 700"><g mask="url(&quot;#SvgjsMask1039&quot;)" fill="none"><rect width="1440" height="700" x="0" y="0" fill="url(#SvgjsLinearGradient1040)"></rect><path d="M -419.1080554191172,477 C -323.11,439 -131.11,259.6 60.89194458088279,287 C 252.89,314.4 348.89,610.8 540.8919445808828,614 C 732.89,617.2 828.89,315.6 1020.8919445808828,303 C 1212.89,290.4 1417.07,543 1500.8919445808829,551 C 1584.71,559 1452.18,384.6 1440,343" stroke="rgba(51, 121, 194, 0.58)" stroke-width="2"></path><path d="M -649.3671514830337,193 C -553.37,233.6 -361.37,369.6 -169.3671514830337,396 C 22.63,422.4 118.63,284 310.6328485169663,325 C 502.63,366 598.63,613.8 790.6328485169663,601 C 982.63,588.2 1140.76,299 1270.6328485169663,261 C 1400.51,223 1406.13,381 1440,411" stroke="rgba(51, 121, 194, 0.58)" stroke-width="2"></path><path d="M -762.2708983663183,259 C -666.27,303.4 -474.27,471.6 -282.27089836631825,481 C -90.27,490.4 5.73,318.2 197.72910163368175,306 C 389.73,293.8 485.73,423.6 677.7291016336817,420 C 869.73,416.4 1005.27,267 1157.7291016336817,288 C 1310.18,309 1383.55,477.6 1440,525" stroke="rgba(51, 121, 194, 0.58)" stroke-width="2"></path><path d="M -414.24935043967247,386 C -318.25,338 -126.25,142.4 65.75064956032755,146 C 257.75,149.6 353.75,412.8 545.7506495603276,404 C 737.75,395.2 833.75,99 1025.7506495603275,102 C 1217.75,105 1422.9,413.2 1505.7506495603275,419 C 1588.6,424.8 1453.15,188.6 1440,131" stroke="rgba(51, 121, 194, 0.58)" stroke-width="2"></path><path d="M -479.9448123083784,262 C -383.94,332.2 -191.94,649.6 0.05518769162161874,613 C 192.06,576.4 288.06,89.4 480.0551876916216,79 C 672.06,68.6 768.06,524.2 960.0551876916217,561 C 1152.06,597.8 1344.07,289.8 1440.0551876916215,263 C 1536.04,236.2 1440.01,394.2 1440,427" stroke="rgba(51, 121, 194, 0.58)" stroke-width="2"></path></g><defs><mask id="SvgjsMask1039"><rect width="1440" height="700" fill="#ffffff"></rect></mask><linearGradient x1="100%" y1="50%" x2="0%" y2="50%" gradientUnits="userSpaceOnUse" id="SvgjsLinearGradient1040"><stop stop-color="#0e2a47" offset="0"></stop><stop stop-color="#00459e" offset="1"></stop></linearGradient></defs></svg>